<mxfile host="app.diagrams.net" agent="Mozilla/5.0 (Windows NT 10.0; Win64; x64) AppleWebKit/537.36 (KHTML, like Gecko) Chrome/131.0.0.0 Safari/537.36 Edg/131.0.0.0" version="26.0.5">
  <diagram name="Trang-1" id="-fGfsdlCkmczdGnpzO3h">
    <mxGraphModel dx="2753" dy="2763" grid="1" gridSize="10" guides="1" tooltips="1" connect="1" arrows="1" fold="1" page="1" pageScale="1" pageWidth="827" pageHeight="1169" math="0" shadow="0">
      <root>
        <mxCell id="0" />
        <mxCell id="1" parent="0" />
        <mxCell id="ubS2rWoc4hu7I1gB1k5Q-1" value="Giáo Sư" style="rounded=1;arcSize=10;whiteSpace=wrap;html=1;align=center;" vertex="1" parent="1">
          <mxGeometry x="630" y="110" width="100" height="40" as="geometry" />
        </mxCell>
        <mxCell id="ubS2rWoc4hu7I1gB1k5Q-2" value="Mã giảng viên&amp;nbsp;" style="ellipse;whiteSpace=wrap;html=1;align=center;fontStyle=4;" vertex="1" parent="1">
          <mxGeometry x="490" y="10" width="100" height="40" as="geometry" />
        </mxCell>
        <mxCell id="ubS2rWoc4hu7I1gB1k5Q-3" value="" style="endArrow=none;html=1;rounded=0;exitX=0.25;exitY=0;exitDx=0;exitDy=0;entryX=0.5;entryY=1;entryDx=0;entryDy=0;" edge="1" parent="1" source="ubS2rWoc4hu7I1gB1k5Q-1" target="ubS2rWoc4hu7I1gB1k5Q-2">
          <mxGeometry relative="1" as="geometry">
            <mxPoint x="270" y="120" as="sourcePoint" />
            <mxPoint x="430" y="120" as="targetPoint" />
          </mxGeometry>
        </mxCell>
        <mxCell id="ubS2rWoc4hu7I1gB1k5Q-4" value="Tuổi&amp;nbsp;" style="ellipse;whiteSpace=wrap;html=1;align=center;" vertex="1" parent="1">
          <mxGeometry x="900" y="10" width="100" height="40" as="geometry" />
        </mxCell>
        <mxCell id="ubS2rWoc4hu7I1gB1k5Q-5" value="Bậc" style="ellipse;whiteSpace=wrap;html=1;align=center;" vertex="1" parent="1">
          <mxGeometry x="810" y="-20" width="100" height="40" as="geometry" />
        </mxCell>
        <mxCell id="ubS2rWoc4hu7I1gB1k5Q-6" value="Chuyên môn&amp;nbsp;" style="ellipse;whiteSpace=wrap;html=1;align=center;" vertex="1" parent="1">
          <mxGeometry x="630" width="100" height="40" as="geometry" />
        </mxCell>
        <mxCell id="ubS2rWoc4hu7I1gB1k5Q-7" value="" style="endArrow=none;html=1;rounded=0;exitX=0.25;exitY=0;exitDx=0;exitDy=0;entryX=0.5;entryY=1;entryDx=0;entryDy=0;" edge="1" parent="1" source="ubS2rWoc4hu7I1gB1k5Q-1" target="ubS2rWoc4hu7I1gB1k5Q-6">
          <mxGeometry relative="1" as="geometry">
            <mxPoint x="105" y="120" as="sourcePoint" />
            <mxPoint x="190" as="targetPoint" />
          </mxGeometry>
        </mxCell>
        <mxCell id="ubS2rWoc4hu7I1gB1k5Q-8" value="" style="endArrow=none;html=1;rounded=0;exitX=0.848;exitY=-0.025;exitDx=0;exitDy=0;entryX=0.5;entryY=1;entryDx=0;entryDy=0;exitPerimeter=0;" edge="1" parent="1" source="ubS2rWoc4hu7I1gB1k5Q-1" target="ubS2rWoc4hu7I1gB1k5Q-4">
          <mxGeometry relative="1" as="geometry">
            <mxPoint x="115" y="130" as="sourcePoint" />
            <mxPoint x="200" y="10" as="targetPoint" />
          </mxGeometry>
        </mxCell>
        <mxCell id="ubS2rWoc4hu7I1gB1k5Q-9" value="" style="endArrow=none;html=1;rounded=0;exitX=0.68;exitY=0.015;exitDx=0;exitDy=0;entryX=0.5;entryY=1;entryDx=0;entryDy=0;exitPerimeter=0;" edge="1" parent="1" source="ubS2rWoc4hu7I1gB1k5Q-1" target="ubS2rWoc4hu7I1gB1k5Q-5">
          <mxGeometry relative="1" as="geometry">
            <mxPoint x="125" y="140" as="sourcePoint" />
            <mxPoint x="210" y="20" as="targetPoint" />
          </mxGeometry>
        </mxCell>
        <mxCell id="ubS2rWoc4hu7I1gB1k5Q-11" value="Học Viên&amp;nbsp;" style="rounded=1;arcSize=10;whiteSpace=wrap;html=1;align=center;" vertex="1" parent="1">
          <mxGeometry x="-170" y="545" width="100" height="40" as="geometry" />
        </mxCell>
        <mxCell id="ubS2rWoc4hu7I1gB1k5Q-12" value="Mã học viên&amp;nbsp;" style="ellipse;whiteSpace=wrap;html=1;align=center;fontStyle=4;" vertex="1" parent="1">
          <mxGeometry x="-220" y="810" width="100" height="40" as="geometry" />
        </mxCell>
        <mxCell id="ubS2rWoc4hu7I1gB1k5Q-14" value="Tuổi&amp;nbsp;" style="ellipse;whiteSpace=wrap;html=1;align=center;" vertex="1" parent="1">
          <mxGeometry x="-30" y="780" width="100" height="40" as="geometry" />
        </mxCell>
        <mxCell id="ubS2rWoc4hu7I1gB1k5Q-15" value="Tên&amp;nbsp;" style="ellipse;whiteSpace=wrap;html=1;align=center;" vertex="1" parent="1">
          <mxGeometry x="-130" y="800" width="100" height="40" as="geometry" />
        </mxCell>
        <mxCell id="ubS2rWoc4hu7I1gB1k5Q-16" value="Bậc học&amp;nbsp;" style="ellipse;shape=doubleEllipse;margin=3;whiteSpace=wrap;html=1;align=center;" vertex="1" parent="1">
          <mxGeometry x="40" y="720" width="100" height="40" as="geometry" />
        </mxCell>
        <mxCell id="ubS2rWoc4hu7I1gB1k5Q-17" value="" style="endArrow=none;html=1;rounded=0;exitX=0.594;exitY=0.06;exitDx=0;exitDy=0;entryX=0.75;entryY=1;entryDx=0;entryDy=0;exitPerimeter=0;" edge="1" parent="1" source="ubS2rWoc4hu7I1gB1k5Q-12" target="ubS2rWoc4hu7I1gB1k5Q-11">
          <mxGeometry relative="1" as="geometry">
            <mxPoint x="520" y="120" as="sourcePoint" />
            <mxPoint x="680" y="120" as="targetPoint" />
          </mxGeometry>
        </mxCell>
        <mxCell id="ubS2rWoc4hu7I1gB1k5Q-18" value="" style="endArrow=none;html=1;rounded=0;entryX=0.7;entryY=0;entryDx=0;entryDy=0;exitX=0.75;exitY=1;exitDx=0;exitDy=0;entryPerimeter=0;" edge="1" parent="1" source="ubS2rWoc4hu7I1gB1k5Q-11" target="ubS2rWoc4hu7I1gB1k5Q-15">
          <mxGeometry relative="1" as="geometry">
            <mxPoint x="520" y="120" as="sourcePoint" />
            <mxPoint x="680" y="120" as="targetPoint" />
          </mxGeometry>
        </mxCell>
        <mxCell id="ubS2rWoc4hu7I1gB1k5Q-20" value="" style="endArrow=none;html=1;rounded=0;entryX=0.5;entryY=0;entryDx=0;entryDy=0;exitX=0.75;exitY=1;exitDx=0;exitDy=0;" edge="1" parent="1" source="ubS2rWoc4hu7I1gB1k5Q-11" target="ubS2rWoc4hu7I1gB1k5Q-14">
          <mxGeometry relative="1" as="geometry">
            <mxPoint x="520" y="120" as="sourcePoint" />
            <mxPoint x="680" y="120" as="targetPoint" />
          </mxGeometry>
        </mxCell>
        <mxCell id="ubS2rWoc4hu7I1gB1k5Q-21" value="" style="endArrow=none;html=1;rounded=0;entryX=0.5;entryY=0;entryDx=0;entryDy=0;exitX=0.75;exitY=1;exitDx=0;exitDy=0;" edge="1" parent="1" source="ubS2rWoc4hu7I1gB1k5Q-11" target="ubS2rWoc4hu7I1gB1k5Q-16">
          <mxGeometry relative="1" as="geometry">
            <mxPoint x="660" y="130" as="sourcePoint" />
            <mxPoint x="680" y="120" as="targetPoint" />
          </mxGeometry>
        </mxCell>
        <mxCell id="ubS2rWoc4hu7I1gB1k5Q-22" value="Dự Án" style="rounded=1;arcSize=10;whiteSpace=wrap;html=1;align=center;" vertex="1" parent="1">
          <mxGeometry x="640" y="545" width="100" height="40" as="geometry" />
        </mxCell>
        <mxCell id="ubS2rWoc4hu7I1gB1k5Q-23" value="Mã dự án&amp;nbsp;" style="ellipse;whiteSpace=wrap;html=1;align=center;fontStyle=4;" vertex="1" parent="1">
          <mxGeometry x="510" y="690" width="100" height="40" as="geometry" />
        </mxCell>
        <mxCell id="ubS2rWoc4hu7I1gB1k5Q-24" value="Ngày kết thức&amp;nbsp;" style="ellipse;whiteSpace=wrap;html=1;align=center;" vertex="1" parent="1">
          <mxGeometry x="640" y="670" width="100" height="40" as="geometry" />
        </mxCell>
        <mxCell id="ubS2rWoc4hu7I1gB1k5Q-25" value="Ngày bắt đầu&amp;nbsp;" style="ellipse;whiteSpace=wrap;html=1;align=center;" vertex="1" parent="1">
          <mxGeometry x="750" y="670" width="100" height="40" as="geometry" />
        </mxCell>
        <mxCell id="ubS2rWoc4hu7I1gB1k5Q-26" value="Tên dự án&amp;nbsp;" style="ellipse;whiteSpace=wrap;html=1;align=center;" vertex="1" parent="1">
          <mxGeometry x="410" y="650" width="100" height="40" as="geometry" />
        </mxCell>
        <mxCell id="ubS2rWoc4hu7I1gB1k5Q-27" value="Ngân sách&amp;nbsp;" style="ellipse;whiteSpace=wrap;html=1;align=center;" vertex="1" parent="1">
          <mxGeometry x="860" y="620" width="100" height="40" as="geometry" />
        </mxCell>
        <mxCell id="ubS2rWoc4hu7I1gB1k5Q-28" value="" style="endArrow=none;html=1;rounded=0;exitX=0.5;exitY=0;exitDx=0;exitDy=0;entryX=0.25;entryY=1;entryDx=0;entryDy=0;" edge="1" parent="1" source="ubS2rWoc4hu7I1gB1k5Q-26" target="ubS2rWoc4hu7I1gB1k5Q-22">
          <mxGeometry relative="1" as="geometry">
            <mxPoint x="520" y="460" as="sourcePoint" />
            <mxPoint x="680" y="460" as="targetPoint" />
          </mxGeometry>
        </mxCell>
        <mxCell id="ubS2rWoc4hu7I1gB1k5Q-29" value="" style="endArrow=none;html=1;rounded=0;exitX=0.75;exitY=1;exitDx=0;exitDy=0;entryX=0.5;entryY=0;entryDx=0;entryDy=0;" edge="1" parent="1" source="ubS2rWoc4hu7I1gB1k5Q-22" target="ubS2rWoc4hu7I1gB1k5Q-27">
          <mxGeometry relative="1" as="geometry">
            <mxPoint x="520" y="460" as="sourcePoint" />
            <mxPoint x="680" y="460" as="targetPoint" />
          </mxGeometry>
        </mxCell>
        <mxCell id="ubS2rWoc4hu7I1gB1k5Q-30" value="" style="endArrow=none;html=1;rounded=0;exitX=0.75;exitY=1;exitDx=0;exitDy=0;entryX=0.5;entryY=0;entryDx=0;entryDy=0;" edge="1" parent="1" source="ubS2rWoc4hu7I1gB1k5Q-22" target="ubS2rWoc4hu7I1gB1k5Q-25">
          <mxGeometry relative="1" as="geometry">
            <mxPoint x="700" y="440" as="sourcePoint" />
            <mxPoint x="860" y="440" as="targetPoint" />
          </mxGeometry>
        </mxCell>
        <mxCell id="ubS2rWoc4hu7I1gB1k5Q-31" value="" style="endArrow=none;html=1;rounded=0;exitX=0.25;exitY=1;exitDx=0;exitDy=0;entryX=0.5;entryY=0;entryDx=0;entryDy=0;" edge="1" parent="1" source="ubS2rWoc4hu7I1gB1k5Q-22" target="ubS2rWoc4hu7I1gB1k5Q-23">
          <mxGeometry relative="1" as="geometry">
            <mxPoint x="667" y="400" as="sourcePoint" />
            <mxPoint x="827" y="400" as="targetPoint" />
          </mxGeometry>
        </mxCell>
        <mxCell id="ubS2rWoc4hu7I1gB1k5Q-32" value="" style="endArrow=none;html=1;rounded=0;entryX=0.5;entryY=0;entryDx=0;entryDy=0;exitX=0.5;exitY=1;exitDx=0;exitDy=0;" edge="1" parent="1" source="ubS2rWoc4hu7I1gB1k5Q-22" target="ubS2rWoc4hu7I1gB1k5Q-24">
          <mxGeometry relative="1" as="geometry">
            <mxPoint x="520" y="460" as="sourcePoint" />
            <mxPoint x="680" y="460" as="targetPoint" />
          </mxGeometry>
        </mxCell>
        <mxCell id="ubS2rWoc4hu7I1gB1k5Q-33" value="Khoa&amp;nbsp;" style="rounded=1;arcSize=10;whiteSpace=wrap;html=1;align=center;" vertex="1" parent="1">
          <mxGeometry x="-170" y="110" width="100" height="40" as="geometry" />
        </mxCell>
        <mxCell id="ubS2rWoc4hu7I1gB1k5Q-34" value="Mã khoa" style="ellipse;whiteSpace=wrap;html=1;align=center;fontStyle=4;" vertex="1" parent="1">
          <mxGeometry x="-260" y="-40" width="100" height="40" as="geometry" />
        </mxCell>
        <mxCell id="ubS2rWoc4hu7I1gB1k5Q-35" value="Trụ sở&amp;nbsp;" style="ellipse;whiteSpace=wrap;html=1;align=center;" vertex="1" parent="1">
          <mxGeometry x="50" y="-80" width="100" height="40" as="geometry" />
        </mxCell>
        <mxCell id="ubS2rWoc4hu7I1gB1k5Q-36" value="Tên khoa&amp;nbsp;" style="ellipse;whiteSpace=wrap;html=1;align=center;" vertex="1" parent="1">
          <mxGeometry x="-120" y="-120" width="100" height="40" as="geometry" />
        </mxCell>
        <mxCell id="ubS2rWoc4hu7I1gB1k5Q-37" value="" style="endArrow=none;html=1;rounded=0;exitX=0;exitY=0;exitDx=0;exitDy=0;entryX=0.5;entryY=1;entryDx=0;entryDy=0;" edge="1" parent="1" source="ubS2rWoc4hu7I1gB1k5Q-33" target="ubS2rWoc4hu7I1gB1k5Q-34">
          <mxGeometry relative="1" as="geometry">
            <mxPoint x="220" y="460" as="sourcePoint" />
            <mxPoint x="380" y="460" as="targetPoint" />
          </mxGeometry>
        </mxCell>
        <mxCell id="ubS2rWoc4hu7I1gB1k5Q-38" value="" style="endArrow=none;html=1;rounded=0;exitX=0.5;exitY=0;exitDx=0;exitDy=0;entryX=0.5;entryY=1;entryDx=0;entryDy=0;" edge="1" parent="1" source="ubS2rWoc4hu7I1gB1k5Q-33" target="ubS2rWoc4hu7I1gB1k5Q-36">
          <mxGeometry relative="1" as="geometry">
            <mxPoint x="130" y="460" as="sourcePoint" />
            <mxPoint x="290" y="460" as="targetPoint" />
          </mxGeometry>
        </mxCell>
        <mxCell id="ubS2rWoc4hu7I1gB1k5Q-41" value="" style="endArrow=none;html=1;rounded=0;entryX=0.5;entryY=1;entryDx=0;entryDy=0;exitX=1;exitY=0;exitDx=0;exitDy=0;" edge="1" parent="1" source="ubS2rWoc4hu7I1gB1k5Q-33" target="ubS2rWoc4hu7I1gB1k5Q-35">
          <mxGeometry relative="1" as="geometry">
            <mxPoint x="75" y="120" as="sourcePoint" />
            <mxPoint x="290" y="460" as="targetPoint" />
          </mxGeometry>
        </mxCell>
        <mxCell id="ubS2rWoc4hu7I1gB1k5Q-42" value="Quản lý&amp;nbsp;" style="shape=rhombus;perimeter=rhombusPerimeter;whiteSpace=wrap;html=1;align=center;" vertex="1" parent="1">
          <mxGeometry x="630" y="320" width="120" height="60" as="geometry" />
        </mxCell>
        <mxCell id="ubS2rWoc4hu7I1gB1k5Q-43" value="" style="endArrow=none;html=1;rounded=0;entryX=0.5;entryY=0;entryDx=0;entryDy=0;exitX=0.5;exitY=1;exitDx=0;exitDy=0;" edge="1" parent="1" source="ubS2rWoc4hu7I1gB1k5Q-42" target="ubS2rWoc4hu7I1gB1k5Q-22">
          <mxGeometry relative="1" as="geometry">
            <mxPoint x="460" y="370" as="sourcePoint" />
            <mxPoint x="620" y="370" as="targetPoint" />
          </mxGeometry>
        </mxCell>
        <mxCell id="ubS2rWoc4hu7I1gB1k5Q-44" value="1" style="resizable=0;html=1;whiteSpace=wrap;align=right;verticalAlign=bottom;" connectable="0" vertex="1" parent="ubS2rWoc4hu7I1gB1k5Q-43">
          <mxGeometry x="1" relative="1" as="geometry" />
        </mxCell>
        <mxCell id="ubS2rWoc4hu7I1gB1k5Q-45" value="" style="endArrow=none;html=1;rounded=0;entryX=0.5;entryY=1;entryDx=0;entryDy=0;exitX=0.5;exitY=0;exitDx=0;exitDy=0;" edge="1" parent="1" source="ubS2rWoc4hu7I1gB1k5Q-42" target="ubS2rWoc4hu7I1gB1k5Q-1">
          <mxGeometry relative="1" as="geometry">
            <mxPoint x="460" y="370" as="sourcePoint" />
            <mxPoint x="620" y="370" as="targetPoint" />
          </mxGeometry>
        </mxCell>
        <mxCell id="ubS2rWoc4hu7I1gB1k5Q-46" value="1" style="resizable=0;html=1;whiteSpace=wrap;align=right;verticalAlign=bottom;" connectable="0" vertex="1" parent="ubS2rWoc4hu7I1gB1k5Q-45">
          <mxGeometry x="1" relative="1" as="geometry">
            <mxPoint x="-10" y="20" as="offset" />
          </mxGeometry>
        </mxCell>
        <mxCell id="ubS2rWoc4hu7I1gB1k5Q-47" value="Thực hiện bởi&amp;nbsp;&amp;nbsp;" style="shape=rhombus;perimeter=rhombusPerimeter;whiteSpace=wrap;html=1;align=center;" vertex="1" parent="1">
          <mxGeometry x="810" y="320" width="120" height="60" as="geometry" />
        </mxCell>
        <mxCell id="ubS2rWoc4hu7I1gB1k5Q-48" value="" style="endArrow=none;html=1;rounded=0;entryX=1;entryY=0;entryDx=0;entryDy=0;exitX=0.5;exitY=1;exitDx=0;exitDy=0;" edge="1" parent="1" source="ubS2rWoc4hu7I1gB1k5Q-47" target="ubS2rWoc4hu7I1gB1k5Q-22">
          <mxGeometry relative="1" as="geometry">
            <mxPoint x="460" y="370" as="sourcePoint" />
            <mxPoint x="620" y="370" as="targetPoint" />
          </mxGeometry>
        </mxCell>
        <mxCell id="ubS2rWoc4hu7I1gB1k5Q-49" value="1" style="resizable=0;html=1;whiteSpace=wrap;align=right;verticalAlign=bottom;" connectable="0" vertex="1" parent="ubS2rWoc4hu7I1gB1k5Q-48">
          <mxGeometry x="1" relative="1" as="geometry" />
        </mxCell>
        <mxCell id="ubS2rWoc4hu7I1gB1k5Q-50" value="" style="endArrow=none;html=1;rounded=0;entryX=1;entryY=1;entryDx=0;entryDy=0;exitX=0.5;exitY=0;exitDx=0;exitDy=0;" edge="1" parent="1" source="ubS2rWoc4hu7I1gB1k5Q-47" target="ubS2rWoc4hu7I1gB1k5Q-1">
          <mxGeometry relative="1" as="geometry">
            <mxPoint x="460" y="370" as="sourcePoint" />
            <mxPoint x="620" y="370" as="targetPoint" />
          </mxGeometry>
        </mxCell>
        <mxCell id="ubS2rWoc4hu7I1gB1k5Q-51" value="1,N" style="resizable=0;html=1;whiteSpace=wrap;align=right;verticalAlign=bottom;" connectable="0" vertex="1" parent="ubS2rWoc4hu7I1gB1k5Q-50">
          <mxGeometry x="1" relative="1" as="geometry">
            <mxPoint x="30" y="10" as="offset" />
          </mxGeometry>
        </mxCell>
        <mxCell id="ubS2rWoc4hu7I1gB1k5Q-54" value="Làm việc bởi&amp;nbsp;" style="shape=rhombus;perimeter=rhombusPerimeter;whiteSpace=wrap;html=1;align=center;" vertex="1" parent="1">
          <mxGeometry x="150" y="535" width="120" height="60" as="geometry" />
        </mxCell>
        <mxCell id="ubS2rWoc4hu7I1gB1k5Q-55" value="" style="endArrow=none;html=1;rounded=0;entryX=1;entryY=0.5;entryDx=0;entryDy=0;exitX=0;exitY=0.5;exitDx=0;exitDy=0;" edge="1" parent="1" source="ubS2rWoc4hu7I1gB1k5Q-54" target="ubS2rWoc4hu7I1gB1k5Q-11">
          <mxGeometry relative="1" as="geometry">
            <mxPoint x="250" y="540" as="sourcePoint" />
            <mxPoint x="410" y="540" as="targetPoint" />
          </mxGeometry>
        </mxCell>
        <mxCell id="ubS2rWoc4hu7I1gB1k5Q-56" value="1,N" style="resizable=0;html=1;whiteSpace=wrap;align=right;verticalAlign=bottom;" connectable="0" vertex="1" parent="ubS2rWoc4hu7I1gB1k5Q-55">
          <mxGeometry x="1" relative="1" as="geometry">
            <mxPoint x="20" as="offset" />
          </mxGeometry>
        </mxCell>
        <mxCell id="ubS2rWoc4hu7I1gB1k5Q-57" value="" style="endArrow=none;html=1;rounded=0;entryX=0;entryY=0.5;entryDx=0;entryDy=0;exitX=1;exitY=0.5;exitDx=0;exitDy=0;" edge="1" parent="1" source="ubS2rWoc4hu7I1gB1k5Q-54" target="ubS2rWoc4hu7I1gB1k5Q-22">
          <mxGeometry relative="1" as="geometry">
            <mxPoint x="250" y="540" as="sourcePoint" />
            <mxPoint x="410" y="540" as="targetPoint" />
          </mxGeometry>
        </mxCell>
        <mxCell id="ubS2rWoc4hu7I1gB1k5Q-58" value="1" style="resizable=0;html=1;whiteSpace=wrap;align=right;verticalAlign=bottom;" connectable="0" vertex="1" parent="ubS2rWoc4hu7I1gB1k5Q-57">
          <mxGeometry x="1" relative="1" as="geometry" />
        </mxCell>
        <mxCell id="ubS2rWoc4hu7I1gB1k5Q-59" value="Hỗ trợ&amp;nbsp;" style="shape=rhombus;perimeter=rhombusPerimeter;whiteSpace=wrap;html=1;align=center;rotation=0;" vertex="1" parent="1">
          <mxGeometry x="200" y="330" width="120" height="60" as="geometry" />
        </mxCell>
        <mxCell id="ubS2rWoc4hu7I1gB1k5Q-60" value="" style="endArrow=none;html=1;rounded=0;entryX=0.25;entryY=1;entryDx=0;entryDy=0;exitX=1;exitY=0.5;exitDx=0;exitDy=0;" edge="1" parent="1" source="ubS2rWoc4hu7I1gB1k5Q-59" target="ubS2rWoc4hu7I1gB1k5Q-1">
          <mxGeometry relative="1" as="geometry">
            <mxPoint x="250" y="270" as="sourcePoint" />
            <mxPoint x="410" y="270" as="targetPoint" />
          </mxGeometry>
        </mxCell>
        <mxCell id="ubS2rWoc4hu7I1gB1k5Q-61" value="1,N" style="resizable=0;html=1;whiteSpace=wrap;align=right;verticalAlign=bottom;" connectable="0" vertex="1" parent="ubS2rWoc4hu7I1gB1k5Q-60">
          <mxGeometry x="1" relative="1" as="geometry">
            <mxPoint x="-35" y="20" as="offset" />
          </mxGeometry>
        </mxCell>
        <mxCell id="ubS2rWoc4hu7I1gB1k5Q-62" value="" style="endArrow=none;html=1;rounded=0;entryX=1;entryY=0;entryDx=0;entryDy=0;exitX=0;exitY=0.5;exitDx=0;exitDy=0;" edge="1" parent="1" source="ubS2rWoc4hu7I1gB1k5Q-59" target="ubS2rWoc4hu7I1gB1k5Q-11">
          <mxGeometry relative="1" as="geometry">
            <mxPoint x="250" y="270" as="sourcePoint" />
            <mxPoint x="410" y="270" as="targetPoint" />
          </mxGeometry>
        </mxCell>
        <mxCell id="ubS2rWoc4hu7I1gB1k5Q-63" value="1,N" style="resizable=0;html=1;whiteSpace=wrap;align=right;verticalAlign=bottom;" connectable="0" vertex="1" parent="ubS2rWoc4hu7I1gB1k5Q-62">
          <mxGeometry x="1" relative="1" as="geometry" />
        </mxCell>
        <mxCell id="ubS2rWoc4hu7I1gB1k5Q-64" value="Thuộc&amp;nbsp;" style="shape=rhombus;perimeter=rhombusPerimeter;whiteSpace=wrap;html=1;align=center;" vertex="1" parent="1">
          <mxGeometry x="-180" y="310" width="120" height="60" as="geometry" />
        </mxCell>
        <mxCell id="ubS2rWoc4hu7I1gB1k5Q-66" value="" style="endArrow=none;html=1;rounded=0;entryX=0.5;entryY=1;entryDx=0;entryDy=0;exitX=0.5;exitY=0;exitDx=0;exitDy=0;" edge="1" parent="1" source="ubS2rWoc4hu7I1gB1k5Q-64" target="ubS2rWoc4hu7I1gB1k5Q-33">
          <mxGeometry relative="1" as="geometry">
            <mxPoint x="60" y="270" as="sourcePoint" />
            <mxPoint x="220" y="270" as="targetPoint" />
          </mxGeometry>
        </mxCell>
        <mxCell id="ubS2rWoc4hu7I1gB1k5Q-67" value="1" style="resizable=0;html=1;whiteSpace=wrap;align=right;verticalAlign=bottom;" connectable="0" vertex="1" parent="ubS2rWoc4hu7I1gB1k5Q-66">
          <mxGeometry x="1" relative="1" as="geometry">
            <mxPoint x="-10" y="20" as="offset" />
          </mxGeometry>
        </mxCell>
        <mxCell id="ubS2rWoc4hu7I1gB1k5Q-68" value="" style="endArrow=none;html=1;rounded=0;entryX=0.5;entryY=0;entryDx=0;entryDy=0;exitX=0.5;exitY=1;exitDx=0;exitDy=0;" edge="1" parent="1" source="ubS2rWoc4hu7I1gB1k5Q-64" target="ubS2rWoc4hu7I1gB1k5Q-11">
          <mxGeometry relative="1" as="geometry">
            <mxPoint x="60" y="270" as="sourcePoint" />
            <mxPoint x="220" y="270" as="targetPoint" />
          </mxGeometry>
        </mxCell>
        <mxCell id="ubS2rWoc4hu7I1gB1k5Q-69" value="N" style="resizable=0;html=1;whiteSpace=wrap;align=right;verticalAlign=bottom;" connectable="0" vertex="1" parent="ubS2rWoc4hu7I1gB1k5Q-68">
          <mxGeometry x="1" relative="1" as="geometry">
            <mxPoint x="-10" as="offset" />
          </mxGeometry>
        </mxCell>
        <mxCell id="ubS2rWoc4hu7I1gB1k5Q-70" value="Hỗ trợ&amp;nbsp;" style="shape=rhombus;perimeter=rhombusPerimeter;whiteSpace=wrap;html=1;align=center;" vertex="1" parent="1">
          <mxGeometry x="-390" y="610" width="120" height="60" as="geometry" />
        </mxCell>
        <mxCell id="ubS2rWoc4hu7I1gB1k5Q-71" value="" style="endArrow=none;html=1;rounded=0;entryX=0;entryY=0.5;entryDx=0;entryDy=0;exitX=0.5;exitY=0;exitDx=0;exitDy=0;edgeStyle=orthogonalEdgeStyle;" edge="1" parent="1" source="ubS2rWoc4hu7I1gB1k5Q-70" target="ubS2rWoc4hu7I1gB1k5Q-11">
          <mxGeometry relative="1" as="geometry">
            <mxPoint x="60" y="540" as="sourcePoint" />
            <mxPoint x="220" y="540" as="targetPoint" />
          </mxGeometry>
        </mxCell>
        <mxCell id="ubS2rWoc4hu7I1gB1k5Q-72" value="1" style="resizable=0;html=1;whiteSpace=wrap;align=right;verticalAlign=bottom;" connectable="0" vertex="1" parent="ubS2rWoc4hu7I1gB1k5Q-71">
          <mxGeometry x="1" relative="1" as="geometry" />
        </mxCell>
        <mxCell id="ubS2rWoc4hu7I1gB1k5Q-73" value="" style="endArrow=none;html=1;rounded=0;entryX=0.25;entryY=1;entryDx=0;entryDy=0;exitX=1;exitY=0.5;exitDx=0;exitDy=0;edgeStyle=orthogonalEdgeStyle;" edge="1" parent="1" source="ubS2rWoc4hu7I1gB1k5Q-70" target="ubS2rWoc4hu7I1gB1k5Q-11">
          <mxGeometry relative="1" as="geometry">
            <mxPoint x="60" y="540" as="sourcePoint" />
            <mxPoint x="220" y="540" as="targetPoint" />
          </mxGeometry>
        </mxCell>
        <mxCell id="ubS2rWoc4hu7I1gB1k5Q-74" value="N" style="resizable=0;html=1;whiteSpace=wrap;align=right;verticalAlign=bottom;" connectable="0" vertex="1" parent="ubS2rWoc4hu7I1gB1k5Q-73">
          <mxGeometry x="1" relative="1" as="geometry">
            <mxPoint y="25" as="offset" />
          </mxGeometry>
        </mxCell>
        <mxCell id="ubS2rWoc4hu7I1gB1k5Q-75" value="Khóa trên&amp;nbsp;" style="ellipse;whiteSpace=wrap;html=1;align=center;" vertex="1" parent="1">
          <mxGeometry x="-480" y="555" width="100" height="40" as="geometry" />
        </mxCell>
        <mxCell id="ubS2rWoc4hu7I1gB1k5Q-76" value="" style="endArrow=none;html=1;rounded=0;entryX=0.5;entryY=1;entryDx=0;entryDy=0;exitX=0;exitY=0.5;exitDx=0;exitDy=0;" edge="1" parent="1" source="ubS2rWoc4hu7I1gB1k5Q-70" target="ubS2rWoc4hu7I1gB1k5Q-75">
          <mxGeometry relative="1" as="geometry">
            <mxPoint x="60" y="540" as="sourcePoint" />
            <mxPoint x="220" y="540" as="targetPoint" />
          </mxGeometry>
        </mxCell>
        <mxCell id="ubS2rWoc4hu7I1gB1k5Q-77" value="Làm việc&amp;nbsp;" style="shape=rhombus;perimeter=rhombusPerimeter;whiteSpace=wrap;html=1;align=center;" vertex="1" parent="1">
          <mxGeometry x="170" y="100" width="120" height="60" as="geometry" />
        </mxCell>
        <mxCell id="ubS2rWoc4hu7I1gB1k5Q-78" value="" style="endArrow=none;html=1;rounded=0;entryX=1;entryY=0.5;entryDx=0;entryDy=0;exitX=0;exitY=0.5;exitDx=0;exitDy=0;" edge="1" parent="1" source="ubS2rWoc4hu7I1gB1k5Q-77" target="ubS2rWoc4hu7I1gB1k5Q-33">
          <mxGeometry relative="1" as="geometry">
            <mxPoint x="110" y="240" as="sourcePoint" />
            <mxPoint x="270" y="240" as="targetPoint" />
          </mxGeometry>
        </mxCell>
        <mxCell id="ubS2rWoc4hu7I1gB1k5Q-79" value="N" style="resizable=0;html=1;whiteSpace=wrap;align=right;verticalAlign=bottom;" connectable="0" vertex="1" parent="ubS2rWoc4hu7I1gB1k5Q-78">
          <mxGeometry x="1" relative="1" as="geometry" />
        </mxCell>
        <mxCell id="ubS2rWoc4hu7I1gB1k5Q-80" value="" style="endArrow=none;html=1;rounded=0;entryX=0;entryY=0.5;entryDx=0;entryDy=0;exitX=1;exitY=0.5;exitDx=0;exitDy=0;" edge="1" parent="1" source="ubS2rWoc4hu7I1gB1k5Q-77" target="ubS2rWoc4hu7I1gB1k5Q-1">
          <mxGeometry relative="1" as="geometry">
            <mxPoint x="420" y="220" as="sourcePoint" />
            <mxPoint x="580" y="220" as="targetPoint" />
          </mxGeometry>
        </mxCell>
        <mxCell id="ubS2rWoc4hu7I1gB1k5Q-81" value="N" style="resizable=0;html=1;whiteSpace=wrap;align=right;verticalAlign=bottom;" connectable="0" vertex="1" parent="ubS2rWoc4hu7I1gB1k5Q-80">
          <mxGeometry x="1" relative="1" as="geometry" />
        </mxCell>
      </root>
    </mxGraphModel>
  </diagram>
</mxfile>
